<?xml version="1.0" standalone="no"?><!DOCTYPE svg PUBLIC "-//W3C//DTD SVG 1.1//EN" "http://www.w3.org/Graphics/SVG/1.1/DTD/svg11.dtd"><svg t="1590547468453" class="icon" viewBox="0 0 1024 1024" version="1.1" xmlns="http://www.w3.org/2000/svg" p-id="2298" xmlns:xlink="http://www.w3.org/1999/xlink" width="200" height="200"><defs><style type="text/css"></style></defs><path d="M128.00256 981.333333a384 384 0 0 1 768 0H128.00256z" fill="#CED9FD" p-id="2299"></path><path d="M511.959893 469.333333a149.76 149.76 0 0 0 146.346667-119.509333 42.666667 42.666667 0 1 0-83.626667-16.981333A64.170667 64.170667 0 0 1 511.959893 384c-30.293333 0-56.661333-21.504-62.72-51.072a42.666667 42.666667 0 1 0-83.584 17.109333A149.802667 149.802667 0 0 0 512.00256 469.333333" fill="#597EF7" p-id="2300"></path><path d="M511.959893 85.333333c129.365333 0 234.666667 105.301333 234.666667 234.666667 0 129.408-105.301333 234.666667-234.666667 234.666667a234.922667 234.922667 0 0 1-234.666666-234.666667c0-129.365333 105.301333-234.666667 234.666666-234.666667m0 554.666667c176.426667 0 320-143.530667 320-320S688.429227 0 511.959893 0s-320 143.573333-320 320c0 176.469333 143.573333 320 320 320" fill="#597EF7" p-id="2301"></path><path d="M771.71456 642.816a42.666667 42.666667 0 1 0-52.010667 67.669333A338.773333 338.773333 0 0 1 850.69056 938.666667H173.229227a338.944 338.944 0 0 1 130.986666-228.181334 42.666667 42.666667 0 0 0-52.053333-67.669333A423.978667 423.978667 0 0 0 85.335893 981.333333a42.666667 42.666667 0 0 0 42.666667 42.666667h767.957333a42.666667 42.666667 0 0 0 42.666667-42.666667 423.936 423.936 0 0 0-166.912-338.517333" fill="#597EF7" p-id="2302"></path></svg>