<?xml version="1.0" standalone="no"?><!DOCTYPE svg PUBLIC "-//W3C//DTD SVG 1.1//EN" "http://www.w3.org/Graphics/SVG/1.1/DTD/svg11.dtd"><svg t="1590547428245" class="icon" viewBox="0 0 1024 1024" version="1.1" xmlns="http://www.w3.org/2000/svg" p-id="2171" xmlns:xlink="http://www.w3.org/1999/xlink" width="200" height="200"><defs><style type="text/css"></style></defs><path d="M512.0192 189.525333l256 179.157334v484.693333H256.0192V368.64z" fill="#CED9FD" p-id="2172"></path><path d="M426.685867 896h170.666666v-170.666667H426.685867v170.666667z m426.666666-426.666667a42.666667 42.666667 0 0 0-42.666666 42.666667v384h-128v-213.333333a42.666667 42.666667 0 0 0-42.666667-42.666667H384.0192a42.666667 42.666667 0 0 0-42.666667 42.666667v213.333333H213.352533v-384a42.666667 42.666667 0 0 0-85.333333 0v426.666667a42.666667 42.666667 0 0 0 42.666667 42.666666h682.666666a42.666667 42.666667 0 0 0 42.666667-42.666666V512a42.666667 42.666667 0 0 0-42.666667-42.666667zM963.133867 349.013333l-426.666667-298.666666a42.666667 42.666667 0 0 0-48.896 0l-426.666667 298.666666a42.666667 42.666667 0 0 0 48.896 69.973334L512.0192 137.386667l402.218667 281.6a42.538667 42.538667 0 0 0 59.392-10.538667 42.666667 42.666667 0 0 0-10.496-59.392" fill="#597EF7" p-id="2173"></path></svg>